<svg width="34" height="38" viewBox="0 0 34 38" fill="none" xmlns="http://www.w3.org/2000/svg">
<g clip-path="url(#clip0_83_348)">
<mask id="mask0_83_348" style="mask-type:luminance" maskUnits="userSpaceOnUse" x="0" y="0" width="34" height="38">
<path d="M33.5 0H0.5V38H33.5V0Z" fill="white"/>
</mask>
<g mask="url(#mask0_83_348)">
<path d="M32.8542 10.7849L22.9566 0.655612C22.0662 -0.190167 20.6718 -0.14012 19.845 0.770718C19.0573 1.63652 19.0573 2.97275 19.845 3.84355L15.6032 8.18254L25.5056 18.3119L29.7474 13.9729C30.6085 14.8437 31.998 14.8437 32.8591 13.9729C33.7153 13.0921 33.7202 11.6708 32.8591 10.7899" fill="#550CA7"/>
<path d="M21.4008 0H4.89837C2.47168 0 0.5 2.01686 0.5 4.49914V33.5009C0.5 35.9932 2.47168 38 4.89837 38H29.1016C31.5283 38 33.5 35.9881 33.5 33.5009V12.3764H23.5976C22.4967 12.3764 21.4008 11.2504 21.4008 10.1243V0Z" fill="#550CA7"/>
<path d="M29.1016 31.504C29.1016 32.1196 28.6075 32.6301 27.9959 32.6301H5.99919C5.39252 32.6301 4.89838 32.1246 4.89838 31.504C4.89838 30.8834 5.38763 30.373 5.99919 30.373H28.0008C28.6075 30.373 29.1065 30.8734 29.1065 31.504M29.1065 27.0049C29.1065 27.6204 28.6124 28.1309 28.0008 28.1309H5.99919C5.39252 28.1309 4.89838 27.6254 4.89838 27.0049C4.89838 26.3843 5.38763 25.8738 5.99919 25.8738H28.0008C28.6075 25.8738 29.1065 26.3743 29.1065 27.0049ZM29.1065 22.5057C29.1065 23.1263 28.6124 23.6318 28.0008 23.6318H5.99919C5.39252 23.6318 4.89838 23.1313 4.89838 22.5057C4.89838 21.8802 5.38763 21.3797 5.99919 21.3797H28.0008C28.6075 21.3797 29.1065 21.8802 29.1065 22.5057ZM29.1065 18.0066C29.1065 18.6272 28.6124 19.1326 28.0008 19.1326H5.99919C5.39252 19.1326 4.89838 18.6322 4.89838 18.0066C4.89838 17.381 5.38763 16.8805 5.99919 16.8805H28.0008C28.6075 16.8805 29.1065 17.381 29.1065 18.0066ZM15.9016 13.5074C15.9016 14.128 15.4124 14.6335 14.8057 14.6335H5.99919C5.39252 14.6335 4.89838 14.133 4.89838 13.5074C4.89838 12.8819 5.38763 12.3814 5.99919 12.3814H14.8008C15.4075 12.3814 15.8967 12.8819 15.8967 13.5074M15.8967 9.0083C15.8967 9.63387 15.4075 10.1343 14.8008 10.1343H5.99919C5.39252 10.1343 4.89838 9.63387 4.89838 9.0083C4.89838 8.38272 5.38763 7.88726 5.99919 7.88726H14.8008C15.4075 7.88726 15.8967 8.38773 15.8967 9.0083ZM21.4008 0H19.2041V10.1243C19.2041 12.6166 21.1709 14.6235 23.6025 14.6235H33.5049V12.3764H23.6025C22.5016 12.3764 21.4057 11.2504 21.4057 10.1243V0H21.4008Z" fill="#A965FF"/>
</g>
</g>
<defs>
<clipPath id="clip0_83_348">
<rect width="33" height="38" fill="white" transform="translate(0.5)"/>
</clipPath>
</defs>
</svg>
