<svg width="35" height="38" viewBox="0 0 35 38" fill="none" xmlns="http://www.w3.org/2000/svg">
<g clip-path="url(#clip0_83_346)">
<path d="M27.0144 21.2443C26.4546 21.2443 25.8948 21.3209 25.3536 21.4647L15.8178 10.7799C15.9484 10.1666 16.0137 9.54376 16.0137 8.92088C16.0137 4.3691 12.7107 0.670166 8.64256 0.670166C7.81214 0.670166 6.71114 1.60927 7.62553 2.64421L10.3874 5.72984C10.3874 5.72984 11.3018 7.79013 9.47298 9.84083C7.63486 11.9011 5.79675 10.8757 5.79675 10.8757L3.04423 7.79013C2.12984 6.76477 1.28076 7.99136 1.28076 8.92088C1.28076 13.4822 4.57444 17.1812 8.64256 17.1812C9.21172 17.1812 9.77156 17.1046 10.3034 16.9608L19.8392 27.6456C19.7086 28.2588 19.6526 28.8817 19.6433 29.5046C19.6433 34.0659 22.937 37.7553 27.0051 37.7553C27.8355 37.7553 28.9365 36.8066 28.0221 35.7813L25.2696 32.6957C25.2696 32.6957 24.3459 30.6353 26.184 28.575C28.0221 26.5148 29.8509 27.5497 29.8509 27.5497L32.6034 30.6353C33.5178 31.6607 34.3669 30.4341 34.3669 29.5046C34.3669 24.9432 31.0639 21.2443 26.9958 21.2443" fill="#550CA7"/>
</g>
<defs>
<clipPath id="clip0_83_346">
<rect width="34" height="38" fill="white" transform="translate(0.5)"/>
</clipPath>
</defs>
</svg>
